<?xml version="1.0" encoding="UTF-8"?>
<svg version="1.1" xmlns="http://www.w3.org/2000/svg" width="612" height="612">
<path d="M0 0 C201.96 0 403.92 0 612 0 C612 201.96 612 403.92 612 612 C410.04 612 208.08 612 0 612 C0 410.04 0 208.08 0 0 Z " fill="#FEFEFE" transform="translate(0,0)"/>
<path d="M0 0 C0.5625 2.5625 0.5625 2.5625 0 6 C-3.58071078 9.55860763 -7.81500184 12.21000123 -12 15 C-13.22654044 20.47177566 -13.1481726 25.99514097 -13.14526367 31.57543945 C-13.14862228 32.50959183 -13.1519809 33.4437442 -13.15544128 34.40620422 C-13.16489457 37.47524362 -13.16689094 40.54422823 -13.16796875 43.61328125 C-13.17118303 45.75082929 -13.17454724 47.88837711 -13.17805481 50.02592468 C-13.18403038 54.49523428 -13.1858961 58.96452458 -13.18530273 63.43383789 C-13.18520069 69.17190428 -13.198903 74.90984809 -13.21607494 80.64788532 C-13.22716322 85.0563769 -13.229223 89.46483841 -13.22869301 93.87334251 C-13.22987599 95.99012872 -13.23431549 98.10691563 -13.24202538 100.22368813 C-13.25176998 103.17305918 -13.24897027 106.12215822 -13.24291992 109.0715332 C-13.24853943 109.95101624 -13.25415894 110.83049927 -13.25994873 111.7366333 C-13.45161836 116.34744202 -13.45161836 116.34744202 -11 120 C-8.93125966 120.6425235 -8.93125966 120.6425235 -7 121 C-7.33 121.99 -7.66 122.98 -8 124 C-10.42074845 124.77342152 -12.71090702 125.35621954 -15.1875 125.875 C-26.70879736 128.5597982 -37.0630172 132.25154647 -47.4375 137.9375 C-48.18306152 138.34436035 -48.92862305 138.7512207 -49.69677734 139.17041016 C-54.05967782 141.64236118 -57.77900923 144.34116428 -61.43408203 147.7800293 C-63.7822998 149.6094718 -66.08751692 149.85792765 -69 150 C-69.6875 147.6875 -69.6875 147.6875 -70 145 C-68.43043923 142.88850619 -67.40547916 142.10430804 -64.84375 141.4453125 C-64.0703125 141.33960938 -63.296875 141.23390625 -62.5 141.125 C-59.33286038 140.48022402 -58.25073226 140.24335778 -55.875 137.9375 C-53.64630745 130.45546072 -56.48142054 123.62390295 -60 117 C-64.64496132 108.62971735 -69.99562053 102.28289045 -78 97 C-78.06290318 105.58016896 -77.87345143 114.11644212 -77.5 122.6875 C-76.83947517 139.12471131 -76.90249336 155.55288064 -77 172 C-76.22672363 172.29567871 -75.45344727 172.59135742 -74.65673828 172.89599609 C-71.68409698 174.13127306 -69.44956329 175.69599885 -66.875 177.625 C-65.90304687 178.346875 -64.93109375 179.06875 -63.9296875 179.8125 C-62.96289062 180.534375 -61.99609375 181.25625 -61 182 C-59.33513329 183.21081215 -57.6684556 184.41913801 -56 185.625 C-52.56768977 188.11635018 -49.15191006 190.6274402 -45.75 193.16015625 C-37.65043445 199.17927842 -29.5041727 205.06256896 -21.125 210.6875 C-13.2598203 215.98078362 -6.11931874 221.74710861 1 228 C2.25490234 228.94939453 2.25490234 228.94939453 3.53515625 229.91796875 C6.47104571 232.39788805 8.75949896 235.1989665 11.0625 238.25 C11.50078125 238.8262915 11.9390625 239.40258301 12.390625 239.99633789 C20.54379525 250.9146693 23.27351801 261.47803917 22 275 C19.20586894 289.57192401 10.23827491 301.72832126 0 312 C-0.80308594 312.81210937 -1.60617187 313.62421875 -2.43359375 314.4609375 C-4.24580461 316.25384018 -6.06983906 318.01241458 -7.9296875 319.75390625 C-8.91151887 320.69004068 -9.89328938 321.62623894 -10.875 322.5625 C-11.38546875 323.03107422 -11.8959375 323.49964844 -12.421875 323.98242188 C-14.06080168 325.510437 -14.06080168 325.510437 -16 328 C-15.98129426 331.29844571 -14.07833559 333.65904289 -12.3125 336.375 C-1.33899438 354.26944562 3.36407724 373.34968573 3.3125 394.125 C3.32861328 395.43082031 3.34472656 396.73664063 3.36132812 398.08203125 C3.36704639 409.39275682 1.48541082 418.25875867 -6 427 C-14.2299629 434.60883362 -26.3483038 438.23774344 -37.375 438.5 C-46.37580994 438.12496625 -53.86785161 435.57513008 -61 430 C-64.3827467 426.3001208 -64.69185364 422.30543971 -64.546875 417.44140625 C-63.72765853 413.78418985 -61.92103641 412.24656631 -58.9375 410.1171875 C-54.64697097 407.6432131 -50.93223715 406.7098684 -46 407 C-46 407.66 -46 408.32 -46 409 C-47.66666667 410.66666667 -49.33333333 412.33333333 -51 414 C-52.56840852 418.70522555 -52.54895539 422.52648816 -50.8125 427.1875 C-48.72195834 430.43144395 -47.39603591 432.12134184 -44 434 C-39.69009374 434.86198125 -35.85793074 434.85238399 -31.8203125 433 C-20.73326977 425.40731704 -14.11544027 410.73541462 -11 398 C-9.73120089 390.44888306 -9.78008647 382.89196238 -9.75 375.25 C-9.729375 373.95578125 -9.70875 372.6615625 -9.6875 371.328125 C-9.64190056 360.01946331 -11.31133397 350.36091846 -16.6875 340.375 C-20 334.20321932 -20 334.20321932 -20 332 C-21.54280434 332.8312252 -23.08413731 333.66518102 -24.625 334.5 C-25.64464844 335.05171875 -26.66429687 335.6034375 -27.71484375 336.171875 C-29.83373949 337.35099891 -31.93247159 338.56748596 -34.00390625 339.828125 C-45.09707456 346.52485973 -56.98950489 351.20224498 -69 356 C-70.30698853 356.56001709 -70.30698853 356.56001709 -71.64038086 357.13134766 C-74 358 -74 358 -77 358 C-77 368.23 -77 378.46 -77 389 C-77.99 389 -78.98 389 -80 389 C-80 379.43 -80 369.86 -80 360 C-86.68615622 361.5994487 -86.68615622 361.5994487 -93.37182617 363.20092773 C-94.21205322 363.40145752 -95.05228027 363.6019873 -95.91796875 363.80859375 C-96.77156982 364.01282959 -97.6251709 364.21706543 -98.50463867 364.42749023 C-99.32810791 364.61641846 -100.15157715 364.80534668 -101 365 C-101.76820068 365.1853833 -102.53640137 365.3707666 -103.32788086 365.56176758 C-106.83116377 366.13631238 -110.29556902 366.18206949 -113.8359375 366.203125 C-114.59234528 366.20882507 -115.34875305 366.21452515 -116.12808228 366.22039795 C-117.73006812 366.22982248 -119.33207312 366.23637179 -120.93408203 366.24023438 C-123.33272463 366.24983086 -125.73046842 366.28083092 -128.12890625 366.3125 C-140.92988399 366.40216844 -153.47777805 365.31631305 -165.25 359.8125 C-165.91056396 359.51279297 -166.57112793 359.21308594 -167.25170898 358.90429688 C-176.37106179 354.60658172 -184.34907991 348.57854842 -191 341 C-191.67289063 340.24009766 -191.67289063 340.24009766 -192.359375 339.46484375 C-200.89108607 328.74754003 -202.75572768 315.22523442 -202 302 C-200.01085017 288.36252366 -193.71612954 277.57879909 -184 268 C-183.43539062 267.42507813 -182.87078125 266.85015625 -182.2890625 266.2578125 C-173.49416162 257.97773508 -162.56972397 255.1059209 -151 253 C-149.55574143 252.64945834 -148.11174636 252.29782988 -146.66796875 251.9453125 C-141.9217056 250.88357589 -137.35399175 250.61536906 -132.5 250.625 C-131.63632813 250.62661133 -130.77265625 250.62822266 -129.8828125 250.62988281 C-121.20834341 250.79205214 -113.28286845 252.5524039 -105 255 C-103.783125 255.33515625 -102.56625 255.6703125 -101.3125 256.015625 C-95.21385902 257.82795699 -95.21385902 257.82795699 -93 259 C-92.1875 261.125 -92.1875 261.125 -92 263 C-96.03487203 264.60788133 -99.04012139 263.29791515 -103.0625 262.0625 C-114.67240029 258.72729228 -126.21158526 258.86612696 -137.02734375 264.7578125 C-146.91167716 270.98200661 -152.2987588 279.67934372 -155 291 C-156.1265381 302.7631537 -154.87441728 314.24163637 -147.6875 323.9375 C-146.48926548 325.31911213 -145.26173403 326.67612489 -144 328 C-143.26716797 328.79277344 -143.26716797 328.79277344 -142.51953125 329.6015625 C-128.57667633 343.0067752 -107.23152923 347.75294345 -88.625 348.5625 C-87.69816406 348.60568359 -86.77132812 348.64886719 -85.81640625 348.69335938 C-83.54439706 348.79876186 -81.27229075 348.90088606 -79 349 C-78.67 348.34 -78.34 347.68 -78 347 C-78 347.66 -78 348.32 -78 349 C-57.90738329 346.08082539 -38.05038438 342.36949436 -24.55859375 325.8203125 C-23 324 -23 324 -21 323 C-20.06837085 320.97131223 -19.22779943 318.90030597 -18.4375 316.8125 C-18.00308594 315.68457031 -17.56867188 314.55664062 -17.12109375 313.39453125 C-13.77195703 303.25376536 -13.61435101 291.85134586 -18 282 C-31.80736334 259.69579768 -53.6479117 245.78272037 -78 237 C-78 242.94 -78 248.88 -78 255 C-78.66 255.33 -79.32 255.66 -80 256 C-80 249.07 -80 242.14 -80 235 C-86.26519615 233.12044115 -92.48663046 231.31297343 -98.8125 229.6875 C-101.33737339 229.02300656 -103.86132147 228.35506941 -106.38525391 227.68701172 C-108.12560942 227.22974184 -109.86748578 226.77822086 -111.61083984 226.33251953 C-132.98743899 220.84592549 -156.73032813 212.78877847 -169 193 C-171.66858304 186.51665562 -172.4303142 178.60511567 -170.32421875 171.82421875 C-169.5 170.1875 -169.5 170.1875 -168 168 C-167.01 168 -166.02 168 -165 168 C-164.52691406 168.96679688 -164.05382812 169.93359375 -163.56640625 170.9296875 C-159.32625797 179.36653991 -154.84901314 186.36996063 -148 193 C-147.38769531 193.60972656 -146.77539062 194.21945312 -146.14453125 194.84765625 C-128.40144874 211.45578679 -103.59672853 220.35439007 -81 228 C-81.50635986 227.70456299 -82.01271973 227.40912598 -82.53442383 227.10473633 C-100.36374724 216.6603872 -117.54450977 205.77179157 -133 192 C-133.84046875 191.28070313 -134.6809375 190.56140625 -135.546875 189.8203125 C-140.48654156 185.56026449 -144.86371671 181.04203876 -149 176 C-149.64839844 175.21625 -150.29679687 174.4325 -150.96484375 173.625 C-159.02616243 163.22729145 -161.6136947 154.85664961 -160 142 C-158.24358349 132.92137962 -153.36245466 127.43806957 -147 121 C-143.01386442 116.7590805 -139.61762455 112.52793944 -136.5625 107.5625 C-127.20934455 92.62629361 -112.91248855 82.63430305 -95.9375 77.6875 C-91.23346056 76.86615978 -86.75929193 76.82445235 -82 77 C-82.165 75.9275 -82.33 74.855 -82.5 73.75 C-83.21160726 68.17741358 -83.08411046 62.60736426 -83 57 C-84.06476563 57.33773437 -85.12953125 57.67546875 -86.2265625 58.0234375 C-104.87978197 63.81699459 -131.54373267 69.42089852 -150.26953125 60.9765625 C-152.25 59.875 -152.25 59.875 -155 58 C-155 56.68 -155 55.36 -155 54 C-149.03993409 51.01996704 -141.70948037 53.94551574 -135.6875 55.5 C-117.6016173 59.81894959 -102.05246283 57.8229941 -84 54 C-84.32167103 51.84909302 -84.64342734 49.69819876 -84.96557617 47.54736328 C-85.23968361 45.71638445 -85.51327962 43.88532898 -85.78637695 42.05419922 C-86.38816229 38.02924819 -86.99218113 34.00538462 -87.64453125 29.98828125 C-87.82371094 28.87839844 -88.00289063 27.76851562 -88.1875 26.625 C-88.34605469 25.66851562 -88.50460937 24.71203125 -88.66796875 23.7265625 C-89.02514779 20.79349224 -89.05659915 17.95186337 -89 15 C-86.28914887 15 -84.58850509 15.41234168 -82.64257812 17.35546875 C-78.00410815 23.89815271 -78.42053631 30.22108892 -78.6875 38 C-78.71005859 39.25167969 -78.73261719 40.50335938 -78.75585938 41.79296875 C-78.81445222 44.86323367 -78.89644598 47.93097761 -79 51 C-76.89157481 49.98734031 -74.78865225 48.96507081 -72.6875 47.9375 C-71.51574219 47.36902344 -70.34398437 46.80054688 -69.13671875 46.21484375 C-64.89077047 44.0343207 -60.93598845 41.44441528 -56.92895508 38.85766602 C-51.05369213 35.13132811 -44.9890336 31.72119158 -38.9609375 28.25 C-25.03106912 20.28498803 -25.03106912 20.28498803 -12.55859375 10.28515625 C-11 9 -11 9 -9 9 C-8.6596875 8.1646875 -8.6596875 8.1646875 -8.3125 7.3125 C-6.49644015 4.11277551 -3.9498923 0 0 0 Z " fill="#030303" transform="translate(386,98)"/>
<path d="M0 0 C4.74908161 0.94981632 8.38802894 2.50083853 12.625 4.6875 C13.33503174 5.05053223 14.04506348 5.41356445 14.77661133 5.78759766 C16.20148933 6.51882537 17.62478501 7.25314562 19.04638672 7.99072266 C20.70172259 8.84590367 22.36738392 9.68105222 24.03515625 10.51171875 C39.92784748 18.6804216 56.87691156 32.45397677 62.875 49.8125 C66.34408849 63.01145798 62.91682008 75.11460922 57 87 C54.75 89.75 54.75 89.75 52 92 C51.37480469 92.61230469 50.74960937 93.22460938 50.10546875 93.85546875 C35.13732977 108.2302761 15.00325227 112.43202812 -5.0625 112.375 C-5.7480899 112.37478851 -6.43367981 112.37457703 -7.14004517 112.37435913 C-28.32611225 112.30913699 -50.51654335 107.14984277 -66.4375 92.125 C-75.59992052 82.24023098 -78.61056041 70.87530415 -78.27734375 57.61328125 C-77.41322363 46.35537825 -72.33068345 37.85607902 -64.1875 30.125 C-58.47963006 25.42570513 -51.37002263 22.6016345 -44 22 C-43.27039063 21.93683594 -42.54078125 21.87367188 -41.7890625 21.80859375 C-32.85733171 21.39285253 -24.5644395 23.7509561 -16 26 C-15.505 24.515 -15.505 24.515 -15 23 C-13.948125 23.28875 -12.89625 23.5775 -11.8125 23.875 C-8.15799207 24.42024094 -8.15799207 24.42024094 -6.4921875 22.73046875 C-5.28464284 21.18669159 -4.13919899 19.59487858 -3 18 C-2.34 18 -1.68 18 -1 18 C-0.67 12.06 -0.34 6.12 0 0 Z " fill="#050505" transform="translate(308,335)"/>
<path d="M0 0 C0.5625 2.5625 0.5625 2.5625 0 6 C-3.58071078 9.55860763 -7.81500184 12.21000123 -12 15 C-13.22654044 20.47177566 -13.1481726 25.99514097 -13.14526367 31.57543945 C-13.14862228 32.50959183 -13.1519809 33.4437442 -13.15544128 34.40620422 C-13.16489457 37.47524362 -13.16689094 40.54422823 -13.16796875 43.61328125 C-13.17118303 45.75082929 -13.17454724 47.88837711 -13.17805481 50.02592468 C-13.18403038 54.49523428 -13.1858961 58.96452458 -13.18530273 63.43383789 C-13.18520069 69.17190428 -13.198903 74.90984809 -13.21607494 80.64788532 C-13.22716322 85.0563769 -13.229223 89.46483841 -13.22869301 93.87334251 C-13.22987599 95.99012872 -13.23431549 98.10691563 -13.24202538 100.22368813 C-13.25176998 103.17305918 -13.24897027 106.12215822 -13.24291992 109.0715332 C-13.24853943 109.95101624 -13.25415894 110.83049927 -13.25994873 111.7366333 C-13.45161836 116.34744202 -13.45161836 116.34744202 -11 120 C-8.93125966 120.6425235 -8.93125966 120.6425235 -7 121 C-7.33 121.99 -7.66 122.98 -8 124 C-10.42074845 124.77342152 -12.71090702 125.35621954 -15.1875 125.875 C-26.70879736 128.5597982 -37.0630172 132.25154647 -47.4375 137.9375 C-48.55584229 138.54779053 -48.55584229 138.54779053 -49.69677734 139.17041016 C-54.05967782 141.64236118 -57.77900923 144.34116428 -61.43408203 147.7800293 C-63.7822998 149.6094718 -66.08751692 149.85792765 -69 150 C-69.6875 147.6875 -69.6875 147.6875 -70 145 C-68.43043923 142.88850619 -67.40547916 142.10430804 -64.84375 141.4453125 C-64.0703125 141.33960938 -63.296875 141.23390625 -62.5 141.125 C-59.33286038 140.48022402 -58.25073226 140.24335778 -55.875 137.9375 C-53.64630745 130.45546072 -56.48142054 123.62390295 -60 117 C-64.64496132 108.62971735 -69.99562053 102.28289045 -78 97 C-78.06374332 105.66289366 -77.8718037 114.28346995 -77.5 122.9375 C-76.90148116 137.96309469 -76.89669993 152.96586638 -77 168 C-78.796875 168.60644531 -78.796875 168.60644531 -81 169 C-83.51157431 167.68383846 -85.68939102 166.36077093 -88 164.75 C-88.99205444 164.07251709 -88.99205444 164.07251709 -90.00415039 163.38134766 C-96.55167491 158.80225189 -102.29061335 153.56601949 -108 148 C-108.73863281 147.33484375 -109.47726562 146.6696875 -110.23828125 145.984375 C-118.7978266 138.07302823 -126.28887051 126.87163189 -127.23828125 115.02734375 C-127.37305188 109.30313862 -126.95766072 104.38356697 -125 99 C-127.88437779 100.29299694 -129.87219421 101.65941363 -132 104 C-132.66 103.67 -133.32 103.34 -134 103 C-123.76669442 90.03239849 -108.47118769 79.87592166 -92 77 C-88.6583127 76.86056269 -85.34177579 76.87673778 -82 77 C-82.165 75.9275 -82.33 74.855 -82.5 73.75 C-83.21160726 68.17741358 -83.08411046 62.60736426 -83 57 C-84.06476563 57.33773437 -85.12953125 57.67546875 -86.2265625 58.0234375 C-104.87978197 63.81699459 -131.54373267 69.42089852 -150.26953125 60.9765625 C-152.25 59.875 -152.25 59.875 -155 58 C-155 56.68 -155 55.36 -155 54 C-149.03993409 51.01996704 -141.70948037 53.94551574 -135.6875 55.5 C-117.6016173 59.81894959 -102.05246283 57.8229941 -84 54 C-84.32167103 51.84909302 -84.64342734 49.69819876 -84.96557617 47.54736328 C-85.23968361 45.71638445 -85.51327962 43.88532898 -85.78637695 42.05419922 C-86.38816229 38.02924819 -86.99218113 34.00538462 -87.64453125 29.98828125 C-87.82371094 28.87839844 -88.00289063 27.76851562 -88.1875 26.625 C-88.34605469 25.66851562 -88.50460937 24.71203125 -88.66796875 23.7265625 C-89.02514779 20.79349224 -89.05659915 17.95186337 -89 15 C-86.28914887 15 -84.58850509 15.41234168 -82.64257812 17.35546875 C-78.00410815 23.89815271 -78.42053631 30.22108892 -78.6875 38 C-78.71005859 39.25167969 -78.73261719 40.50335938 -78.75585938 41.79296875 C-78.81445222 44.86323367 -78.89644598 47.93097761 -79 51 C-76.89157481 49.98734031 -74.78865225 48.96507081 -72.6875 47.9375 C-71.51574219 47.36902344 -70.34398437 46.80054688 -69.13671875 46.21484375 C-64.89077047 44.0343207 -60.93598845 41.44441528 -56.92895508 38.85766602 C-51.05369213 35.13132811 -44.9890336 31.72119158 -38.9609375 28.25 C-25.03106912 20.28498803 -25.03106912 20.28498803 -12.55859375 10.28515625 C-11 9 -11 9 -9 9 C-8.6596875 8.1646875 -8.6596875 8.1646875 -8.3125 7.3125 C-6.49644015 4.11277551 -3.9498923 0 0 0 Z " fill="#040404" transform="translate(386,98)"/>
<path d="M0 0 C10.36055065 -0.47231922 20.60756297 2.32187444 29.71875 7.19140625 C29.71875 7.85140625 29.71875 8.51140625 29.71875 9.19140625 C28.25 10.63671875 28.25 10.63671875 26.21875 12.31640625 C15.64243032 20.67842331 15.64243032 20.67842331 9.71875 32.19140625 C10.26402344 32.33835937 10.80929687 32.4853125 11.37109375 32.63671875 C23.25477311 36.17135159 31.01416761 43.51059043 38.32202148 53.35009766 C40.10745908 56.98214148 40.09697551 60.16429585 40.01171875 64.1171875 C40.00747391 64.86477829 40.00322906 65.61236908 39.99885559 66.38261414 C39.98214056 68.75675357 39.94450347 71.13002592 39.90625 73.50390625 C39.89119381 75.11912831 39.87750703 76.73436376 39.86523438 78.34960938 C39.8322608 82.29720613 39.78052969 86.24415947 39.71875 90.19140625 C17.26777446 91.07860177 -4.65445236 86.86388394 -22.63671875 72.28125 C-30.80087622 64.57661359 -35.68265536 54.78453831 -36.56640625 43.57421875 C-36.88633233 29.74784801 -33.82554439 20.37743523 -24.3984375 10.1484375 C-17.50228711 3.60128258 -9.36008242 0.78534938 0 0 Z " fill="#FCFCFC" transform="translate(266.28125,356.80859375)"/>
<path d="M0 0 C1.21429688 -0.04898438 2.42859375 -0.09796875 3.6796875 -0.1484375 C9.84055492 0.14123974 15.51851814 3.00677241 21.125 5.375 C22.57613971 30.73328056 23.43963499 55.97427539 23.125 81.375 C4.22300253 70.14151045 -17.13031487 55.10541372 -23.4765625 32.6875 C-24.83971868 24.77584846 -24.52954544 17.55807208 -20.875 10.375 C-15.02209101 3.4147839 -8.99252111 0.24304111 0 0 Z " fill="#FBFBFB" transform="translate(282.875,185.625)"/>
<path d="M0 0 C23.13273548 7.01272008 45.85126225 22.05077737 58.81640625 42.765625 C63.74332568 52.06660821 64.65038812 62.9252945 61.7109375 73.04296875 C60.3500347 76.78919021 58.71468272 80.40416051 57 84 C53 84 53 84 51.31640625 82.33984375 C50.44822266 81.15068359 50.44822266 81.15068359 49.5625 79.9375 C46.00079427 75.25525764 42.29230339 70.75711542 38.4375 66.3125 C37.90777588 65.69560303 37.37805176 65.07870605 36.83227539 64.44311523 C34.10326404 61.2949022 31.31903583 58.33752469 28.28515625 55.48046875 C25.84879024 53.09677011 24.92281305 51.81683745 23.5546875 48.5703125 C21.39464676 43.60981694 18.00112079 40.56953676 14.125 36.875 C13.41730469 36.18535156 12.70960938 35.49570312 11.98046875 34.78515625 C10.61099658 33.45138727 9.23778014 32.12144898 7.86035156 30.79589844 C5.54357462 28.55938778 3.26830335 26.28555281 1 24 C0.67 23.67 0.34 23.34 0 23 C-0.08713831 21.29227642 -0.10700007 19.58101351 -0.09765625 17.87109375 C-0.09443359 16.83662109 -0.09121094 15.80214844 -0.08789062 14.73632812 C-0.07951172 13.64771484 -0.07113281 12.55910156 -0.0625 11.4375 C-0.05798828 10.34501953 -0.05347656 9.25253906 -0.04882812 8.12695312 C-0.03699826 5.41791505 -0.02051543 2.70898401 0 0 Z " fill="#FAFAFA" transform="translate(309,335)"/>
<path d="M0 0 C12.7781709 5.54199322 22.23254438 22.057835 30 33 C25.53614285 43.35430782 13.90546891 48.13215499 4.140625 52.1875 C-4.97359973 55.68901007 -13.27889291 57.14260793 -23 57 C-23.0994692 52.57094277 -23.17174818 48.14249091 -23.21972656 43.71264648 C-23.23974363 42.20829938 -23.26696627 40.70402911 -23.30175781 39.19995117 C-23.35071945 37.02763838 -23.37306653 34.85636094 -23.390625 32.68359375 C-23.41157227 31.37962646 -23.43251953 30.07565918 -23.45410156 28.73217773 C-22.74644506 22.91607833 -20.47597713 19.31895829 -16.0625 15.375 C-14.5465625 14.199375 -14.5465625 14.199375 -13 13 C-11.31126121 11.35570171 -9.64694485 9.68615782 -8 8 C-6.56384283 6.56115842 -5.12626374 5.12373515 -3.6875 3.6875 C-2.99011719 2.99011719 -2.29273438 2.29273438 -1.57421875 1.57421875 C-1.05472656 1.05472656 -0.53523438 0.53523438 0 0 Z " fill="#FAFAFA" transform="translate(332,390)"/>
<path d="M0 0 C3.64300215 1.21433405 4.12340402 2.60534616 5.80419922 5.91333008 C6.13693848 6.60193115 6.46967773 7.29053223 6.8125 8 C7.16070801 8.71115967 7.50891602 9.42231934 7.86767578 10.1550293 C10.31379762 15.27642181 12.45725647 20.4717331 14.375 25.8125 C14.61323486 26.46798828 14.85146973 27.12347656 15.09692383 27.79882812 C18.7540244 38.45206371 19.3403095 48.92333284 19.3125 60.125 C19.32861328 61.43082031 19.34472656 62.73664063 19.36132812 64.08203125 C19.36704639 75.39275682 17.48541082 84.25875867 10 93 C1.7700371 100.60883362 -10.3483038 104.23774344 -21.375 104.5 C-30.37580994 104.12496625 -37.86785161 101.57513008 -45 96 C-48.3827467 92.3001208 -48.69185364 88.30543971 -48.546875 83.44140625 C-47.72765853 79.78418985 -45.92103641 78.24656631 -42.9375 76.1171875 C-38.64697097 73.6432131 -34.93223715 72.7098684 -30 73 C-30 73.66 -30 74.32 -30 75 C-31.66666667 76.66666667 -33.33333333 78.33333333 -35 80 C-36.56840852 84.70522555 -36.54895539 88.52648816 -34.8125 93.1875 C-32.72195834 96.43144395 -31.39603591 98.12134184 -28 100 C-23.69009374 100.86198125 -19.85793074 100.85238399 -15.8203125 99 C-4.73326977 91.40731704 1.88455973 76.73541462 5 64 C6.26879911 56.44888306 6.21991353 48.89196238 6.25 41.25 C6.270625 39.95578125 6.29125 38.6615625 6.3125 37.328125 C6.35583315 26.58150326 4.64433936 17.08444611 0.3125 7.25 C-0.12449219 6.24453125 -0.56148438 5.2390625 -1.01171875 4.203125 C-1.50091797 3.11257813 -1.50091797 3.11257813 -2 2 C-1.34 1.34 -0.68 0.68 0 0 Z " fill="#0B0B0B" transform="translate(370,432)"/>
<path d="M0 0 C2.71085113 0 4.41149491 0.41234168 6.35742188 2.35546875 C10.99589185 8.89815271 10.57946369 15.22108892 10.3125 23 C10.28994141 24.25167969 10.26738281 25.50335938 10.24414062 26.79296875 C10.18554778 29.86323367 10.10355402 32.93097761 10 36 C11.22541504 35.33943604 11.22541504 35.33943604 12.47558594 34.66552734 C13.55098633 34.1030127 14.62638672 33.54049805 15.734375 32.9609375 C16.79881836 32.39681152 17.86326172 31.83268555 18.95996094 31.25146484 C22.00584515 29.99759378 23.1699349 29.6817202 26.25 30.625 C27.1575 31.07875 28.065 31.5325 29 32 C29 32.66 29 33.32 29 34 C29.928125 34.37125 29.928125 34.37125 30.875 34.75 C33.47288378 36.27816693 33.92717714 37.20863525 35 40 C35.22705078 42.74902344 35.22705078 42.74902344 35.1953125 45.859375 C35.18886719 46.97441406 35.18242187 48.08945313 35.17578125 49.23828125 C35.15064453 50.97658203 35.15064453 50.97658203 35.125 52.75 C35.11597656 53.92433594 35.10695313 55.09867188 35.09765625 56.30859375 C35.07410063 59.20593536 35.04120652 62.10286441 35 65 C33.98421875 64.79503906 32.9684375 64.59007812 31.921875 64.37890625 C23.62103423 62.74159373 15.46588839 61.46498251 7 61 C5.84683274 54.65758005 5.90492937 48.43311296 6 42 C4.93523437 42.33773437 3.87046875 42.67546875 2.7734375 43.0234375 C-15.87978197 48.81699459 -42.54373267 54.42089852 -61.26953125 45.9765625 C-63.25 44.875 -63.25 44.875 -66 43 C-66 41.68 -66 40.36 -66 39 C-60.03993409 36.01996704 -52.70948037 38.94551574 -46.6875 40.5 C-28.6016173 44.81894959 -13.05246283 42.8229941 5 39 C4.67832897 36.84909302 4.35657266 34.69819876 4.03442383 32.54736328 C3.76031639 30.71638445 3.48672038 28.88532898 3.21362305 27.05419922 C2.61183771 23.02924819 2.00781887 19.00538462 1.35546875 14.98828125 C1.17628906 13.87839844 0.99710937 12.76851562 0.8125 11.625 C0.65394531 10.66851562 0.49539063 9.71203125 0.33203125 8.7265625 C-0.02514779 5.79349224 -0.05659915 2.95186337 0 0 Z " fill="#101010" transform="translate(297,113)"/>
<path d="M0 0 C0.99 0 1.98 0 3 0 C3.70962891 1.45019531 3.70962891 1.45019531 4.43359375 2.9296875 C8.67374203 11.36653991 13.15098686 18.36996063 20 25 C20.91845703 25.91458984 20.91845703 25.91458984 21.85546875 26.84765625 C36.61117828 40.65950376 68.4221084 60 89 60 C89 60.66 89 61.32 89 62 C85.30375507 64.46416329 83.51993292 65.07427613 79.0625 64.4375 C77.37048962 63.97451208 75.68347026 63.49313775 74 63 C71.75014947 62.41609045 69.5001327 61.83282126 67.25 61.25 C65.24495235 60.70576177 63.24160642 60.15552322 61.23828125 59.60498047 C58.84094971 58.95701062 56.43659827 58.34015829 54.03125 57.72265625 C33.41579388 52.29976524 10.80127711 44.0333418 -1 25 C-3.66858304 18.51665562 -4.4303142 10.60511567 -2.32421875 3.82421875 C-1.5 2.1875 -1.5 2.1875 0 0 Z " fill="#080808" transform="translate(218,266)"/>
<path d="M0 0 C2.57285724 2.172635 4.48996919 3.97993838 6 7 C6.084915 8.8863912 6.107193 10.77578515 6.09765625 12.6640625 C6.09443359 13.78554687 6.09121094 14.90703125 6.08789062 16.0625 C6.07951172 17.238125 6.07113281 18.41375 6.0625 19.625 C6.05798828 20.80835938 6.05347656 21.99171875 6.04882812 23.2109375 C6.03701467 26.14067507 6.02054258 29.07031272 6 32 C4.94941406 31.79503906 3.89882813 31.59007812 2.81640625 31.37890625 C1.39847263 31.10658787 -0.01949815 30.83446289 -1.4375 30.5625 C-2.12521484 30.42779297 -2.81292969 30.29308594 -3.52148438 30.15429688 C-8.70126269 29.1665252 -13.7218641 28.58645954 -19 28 C-19 20.74 -19 13.48 -19 6 C-5.40102438 -0.66072275 -5.40102438 -0.66072275 0 0 Z " fill="#F7F7F7" transform="translate(326,146)"/>
<path d="M0 0 C3.47693243 1.26820048 6.22527627 2.7306703 9.1875 4.9375 C14.80090102 8.96763407 20.66497802 12.52611396 26.57885742 16.09155273 C30.79044278 18.63368083 34.93169764 21.23381352 39 24 C37 25 37 25 34.42480469 24.21484375 C33.35133789 23.79332031 32.27787109 23.37179687 31.171875 22.9375 C29.9849707 22.4731958 28.79806641 22.0088916 27.57519531 21.53051758 C26.29988592 21.02095601 25.02482462 20.51077317 23.75 20 C23.11461304 19.74834076 22.47922607 19.49668152 21.82458496 19.23739624 C12.64910808 15.6017118 3.65541226 11.76698457 -5 7 C-3.47793991 4.37098712 -2.15634036 2.15634036 0 0 Z " fill="#F2F2F2" transform="translate(267,302)"/>
<path d="M0 0 C0.33 0 0.66 0 1 0 C1.33 4.62 1.66 9.24 2 14 C2.66 14 3.32 14 4 14 C4.84821884 33.35112023 5.13306356 52.63413453 5 72 C3.515 72.495 3.515 72.495 2 73 C1.71072686 65.33618025 1.42647967 57.67218517 1.14550781 50.00805664 C1.04962352 47.40808016 0.95264482 44.80814378 0.85449219 42.20825195 C0.32391263 28.13435849 -0.18360774 14.08551858 0 0 Z " fill="#292929" transform="translate(304,194)"/>
<path d="M0 0 C2.24991425 2.02492282 3.81150752 3.47621674 4.84765625 6.35546875 C6.24687381 9.56655446 8.01040458 11.23665405 10.5625 13.625 C16.72402807 19.6003524 22.02160249 26.11037948 27.234375 32.91796875 C27.94078125 33.83191406 28.6471875 34.74585938 29.375 35.6875 C30.00148438 36.51636719 30.62796875 37.34523438 31.2734375 38.19921875 C31.84320313 38.79347656 32.41296875 39.38773437 33 40 C33.99 40 34.98 40 36 40 C35.67 40.99 35.34 41.98 35 43 C32.9375 43.6875 32.9375 43.6875 31 44 C30.29617188 43.01902344 29.59234375 42.03804688 28.8671875 41.02734375 C23.44090098 33.56957318 17.82254553 26.40518535 11.5625 19.625 C10.98419434 18.98941162 10.40588867 18.35382324 9.81005859 17.69897461 C6.77513434 14.47673655 4.38670156 12.22991633 0 11 C0.99 10.34 1.98 9.68 3 9 C2.690625 8.2575 2.38125 7.515 2.0625 6.75 C1.1905075 4.49307824 0.52332993 2.3549847 0 0 Z " fill="#171717" transform="translate(330,379)"/>
<path d="M0 0 C0 0.99 0 1.98 0 3 C0.99 4.485 0.99 4.485 2 6 C-1.3698412 7.96731204 -4.74672397 9.92221346 -8.125 11.875 C-9.07632812 12.43058594 -10.02765625 12.98617188 -11.0078125 13.55859375 C-15.57734712 16.19242273 -19.86178137 18.63326845 -25 20 C-25.33 18.68 -25.66 17.36 -26 16 C-25.40574219 15.79246094 -24.81148438 15.58492188 -24.19921875 15.37109375 C-15.10307495 11.99010095 -6.47192646 7.36460597 0 0 Z " fill="#1C1C1C" transform="translate(360,426)"/>
<path d="M0 0 C0.5625 2.5625 0.5625 2.5625 0 6 C-3.58071078 9.55860763 -7.81500184 12.21000123 -12 15 C-12.73606499 18.56769552 -12.73606499 18.56769552 -13 22 C-13.33 22 -13.66 22 -14 22 C-14.103125 21.21625 -14.20625 20.4325 -14.3125 19.625 C-14.77595022 16.66954819 -14.77595022 16.66954819 -18 15 C-16.8803014 13.99406757 -15.7540588 12.9954151 -14.625 12 C-13.99851562 11.443125 -13.37203125 10.88625 -12.7265625 10.3125 C-11 9 -11 9 -9 9 C-8.773125 8.443125 -8.54625 7.88625 -8.3125 7.3125 C-6.49644015 4.11277551 -3.9498923 0 0 0 Z " fill="#1C1C1C" transform="translate(386,98)"/>
<path d="M0 0 C0.66 0.33 1.32 0.66 2 1 C2.33 1.99 2.66 2.98 3 4 C1.2365625 4.804375 1.2365625 4.804375 -0.5625 5.625 C-4.34933125 7.50165974 -7.28498457 9.752437 -10.359375 12.6328125 C-12.13553225 14.11294354 -13.92546448 14.99674102 -16 16 C-17.70921589 17.5412312 -17.70921589 17.5412312 -19 19 C-19.66 18.67 -20.32 18.34 -21 18 C-14.7641169 10.31537638 -8.43303503 5.10833594 0 0 Z " fill="#181818" transform="translate(273,183)"/>
<path d="M0 0 C0.33 1.32 0.66 2.64 1 4 C-6.0547046 10.03938731 -6.0547046 10.03938731 -10 9.875 C-10.99 9.441875 -10.99 9.441875 -12 9 C-11.25 4.25 -11.25 4.25 -9 2 C-6.8359375 1.3671875 -6.8359375 1.3671875 -4.375 0.875 C-3.55773437 0.70742187 -2.74046875 0.53984375 -1.8984375 0.3671875 C-1.27195312 0.24601563 -0.64546875 0.12484375 0 0 Z " fill="#0A0A0A" transform="translate(328,238)"/>
<path d="M0 0 C4.88036541 1.67491831 8.99152948 4.36791961 13.3125 7.125 C14.05306641 7.59292969 14.79363281 8.06085938 15.55664062 8.54296875 C17.37341968 9.69164196 19.18703037 10.84532369 21 12 C19 13 19 13 17.15234375 12.53442383 C14.76222031 11.64155254 12.37764587 10.73816244 10 9.8125 C9.16726563 9.50763672 8.33453125 9.20277344 7.4765625 8.88867188 C6.67992187 8.58123047 5.88328125 8.27378906 5.0625 7.95703125 C4.33160156 7.67835205 3.60070312 7.39967285 2.84765625 7.11254883 C0.5377602 5.72166665 -0.1364026 4.53003196 -1 2 C-0.67 1.34 -0.34 0.68 0 0 Z " fill="#ECECEC" transform="translate(285,314)"/>
<path d="M0 0 C-1.423125 0.37125 -1.423125 0.37125 -2.875 0.75 C-6.08838835 1.661178 -6.08838835 1.661178 -7.1875 4.0625 C-7.455625 4.701875 -7.72375 5.34125 -8 6 C-11 7 -11 7 -13 7 C-13.99 7.33 -14.98 7.66 -16 8 C-16 7.01 -16 6.02 -16 5 C-11.61357581 1.80987332 -5.42607507 -2.38747303 0 0 Z M-19 7 C-18.34 7.33 -17.68 7.66 -17 8 C-20.465 10.97 -20.465 10.97 -24 14 C-22.38262276 10.76524552 -21.52370777 9.29427979 -19 7 Z " fill="#E3E3E3" transform="translate(262,359)"/>
<path d="M0 0 C0.33 0 0.66 0 1 0 C1 9.9 1 19.8 1 30 C0.01 30.33 -0.98 30.66 -2 31 C-2.02715383 29.25008666 -2.04646551 27.50005055 -2.0625 25.75 C-2.07410156 24.77546875 -2.08570313 23.8009375 -2.09765625 22.796875 C-2 20 -2 20 -1.51367188 18.06835938 C-0.67350453 14.68532811 -0.62442636 11.21886297 -0.4375 7.75 C-0.39431641 7.00492188 -0.35113281 6.25984375 -0.30664062 5.4921875 C-0.20103275 3.661651 -0.10005799 1.83084824 0 0 Z " fill="#323232" transform="translate(308,236)"/>
<path d="M0 0 C0 0.99 0 1.98 0 3 C0.99 4.485 0.99 4.485 2 6 C0.54462432 6.83848804 -0.91440373 7.67063934 -2.375 8.5 C-3.18710937 8.9640625 -3.99921875 9.428125 -4.8359375 9.90625 C-7 11 -7 11 -9 11 C-8.46324097 7.14896699 -6.88399077 5.68202413 -3.9375 3.25 C-3.20402344 2.63640625 -2.47054688 2.0228125 -1.71484375 1.390625 C-1.14894531 0.93171875 -0.58304687 0.4728125 0 0 Z " fill="#141414" transform="translate(360,426)"/>
<path d="M0 0 C-3.60957611 3.2910841 -6.12637153 4.54663921 -11 5 C-11.99 3.68 -12.98 2.36 -14 1 C-12.41913952 0.63495397 -10.83516093 0.28339494 -9.25 -0.0625 C-8.36828125 -0.25972656 -7.4865625 -0.45695313 -6.578125 -0.66015625 C-4.01320972 -0.99825872 -2.42908361 -0.81158635 0 0 Z " fill="#252525" transform="translate(294,155)"/>
<path d="M0 0 C3.59634744 3.49359465 6.83451967 7.11098131 10 11 C9.34 11.66 8.68 12.32 8 13 C6.65472507 11.59466816 5.3241269 10.17527548 4 8.75 C3.2575 7.96109375 2.515 7.1721875 1.75 6.359375 C0 4 0 4 0 0 Z " fill="#202020" transform="translate(342,395)"/>
<path d="M0 0 C0.99 0 1.98 0 3 0 C4.06775224 1.96466413 5.06553465 3.96855359 6 6 C5.67 6.66 5.34 7.32 5 8 C2.69 7.34 0.38 6.68 -2 6 C-1.125 1.125 -1.125 1.125 0 0 Z " fill="#171717" transform="translate(218,266)"/>
<path d="M0 0 C0 0.33 0 0.66 0 1 C-0.87011719 1.18175781 -0.87011719 1.18175781 -1.7578125 1.3671875 C-6.28028442 2.33735474 -10.63750966 3.43397783 -15 5 C-15 4.01 -15 3.02 -15 2 C-9.30808858 -1.57777289 -6.3081645 -2.62840188 0 0 Z " fill="#303030" transform="translate(326,145)"/>
<path d="M0 0 C0.66 0.33 1.32 0.66 2 1 C2 1.99 2 2.98 2 4 C1.01 4.66 0.02 5.32 -1 6 C-1.73606499 9.56769552 -1.73606499 9.56769552 -2 13 C-2.33 13 -2.66 13 -3 13 C-3.103125 12.21625 -3.20625 11.4325 -3.3125 10.625 C-3.77595022 7.66954819 -3.77595022 7.66954819 -7 6 C-4.69 4.02 -2.38 2.04 0 0 Z " fill="#323232" transform="translate(375,107)"/>
<path d="M0 0 C0 4.29411467 -2.11472068 5.83308055 -4.91015625 8.92578125 C-8.00704334 11.99951404 -11.40752269 14.53658698 -15 17 C-13.67879172 14.06769807 -12.25361803 12.01335101 -9.9609375 9.765625 C-9.38085938 9.19199219 -8.80078125 8.61835938 -8.203125 8.02734375 C-7.59984375 7.44082031 -6.9965625 6.85429687 -6.375 6.25 C-5.76398438 5.64800781 -5.15296875 5.04601562 -4.5234375 4.42578125 C-3.02011376 2.94594695 -1.51065144 1.47235324 0 0 Z " fill="#222222" transform="translate(294,366)"/>
<path d="M0 0 C0.598125 0.20625 1.19625 0.4125 1.8125 0.625 C1.8125 2.605 1.8125 4.585 1.8125 6.625 C-0.4975 5.965 -2.8075 5.305 -5.1875 4.625 C-5.1875 3.635 -5.1875 2.645 -5.1875 1.625 C-2.1875 -0.375 -2.1875 -0.375 0 0 Z " fill="#EAEAEA" transform="translate(283.1875,312.375)"/>
<path d="M0 0 C0.598125 0.226875 1.19625 0.45375 1.8125 0.6875 C0.8225 1.0175 -0.1675 1.3475 -1.1875 1.6875 C-0.5275 3.3375 0.1325 4.9875 0.8125 6.6875 C-0.8375 7.0175 -2.4875 7.3475 -4.1875 7.6875 C-4.875 5.375 -4.875 5.375 -5.1875 2.6875 C-3.60587179 0.1901923 -2.97595617 -0.4251366 0 0 Z " fill="#323232" transform="translate(321.1875,240.3125)"/>
<path d="M0 0 C0.66 0 1.32 0 2 0 C2.33 0.66 2.66 1.32 3 2 C3.99 2 4.98 2 6 2 C5.67 2.99 5.34 3.98 5 5 C3.0625 5.8125 3.0625 5.8125 1 6 C0.34 5.34 -0.32 4.68 -1 4 C-0.625 1.875 -0.625 1.875 0 0 Z " fill="#1C1C1C" transform="translate(360,417)"/>
<path d="M0 0 C0.33 0 0.66 0 1 0 C1 1.65 1 3.3 1 5 C0.401875 5.268125 -0.19625 5.53625 -0.8125 5.8125 C-2.97224808 6.98493467 -4.35790256 8.19369282 -6 10 C-6.66 9.67 -7.32 9.34 -8 9 C-6.69088122 7.49704815 -5.37761608 5.99770689 -4.0625 4.5 C-3.33160156 3.6646875 -2.60070312 2.829375 -1.84765625 1.96875 C-1.23792969 1.3190625 -0.62820313 0.669375 0 0 Z " fill="#2A2A2A" transform="translate(260,192)"/>
<path d="M0 0 C3.3 1.98 6.6 3.96 10 6 C8 7 8 7 5.6171875 6.22265625 C4.71226562 5.83980469 3.80734375 5.45695312 2.875 5.0625 C1.96492188 4.68222656 1.05484375 4.30195313 0.1171875 3.91015625 C-0.58148438 3.60980469 -1.28015625 3.30945313 -2 3 C-1.34 2.67 -0.68 2.34 0 2 C0 1.34 0 0.68 0 0 Z " fill="#C9C9C9" transform="translate(296,320)"/>
<path d="M0 0 C3.25696479 0.41755959 4.63443291 0.63443291 7 3 C5.02 3.99 5.02 3.99 3 5 C1.68 3.68 0.36 2.36 -1 1 C-0.67 0.67 -0.34 0.34 0 0 Z " fill="#101010" transform="translate(257,291)"/>
<path d="M0 0 C2.3125 0.1875 2.3125 0.1875 4 1 C1.63707344 3.52588702 0.33537489 4.88820837 -3 6 C-3.66 5.67 -4.32 5.34 -5 5 C-2.75 2.4375 -2.75 2.4375 0 0 Z " fill="#D2D2D2" transform="translate(381,414)"/>
<path d="M0 0 C0.33 1.32 0.66 2.64 1 4 C-0.875 5.0625 -0.875 5.0625 -3 6 C-3.66 5.67 -4.32 5.34 -5 5 C-5 4.01 -5 3.02 -5 2 C-3.35 1.34 -1.7 0.68 0 0 Z " fill="#181818" transform="translate(328,238)"/>
<path d="M0 0 C0.66 0.33 1.32 0.66 2 1 C-0.85276137 3.93200474 -3.65079784 6.64315404 -7 9 C-5.64978174 4.58110387 -3.73884332 2.65654657 0 0 Z " fill="#D6D6D6" transform="translate(269,189)"/>
<path d="M0 0 C-0.33 0.99 -0.66 1.98 -1 3 C-3.31 3.33 -5.62 3.66 -8 4 C-4.5 0 -4.5 0 0 0 Z " fill="#262626" transform="translate(379,219)"/>
<path d="M0 0 C1.32 0.33 2.64 0.66 4 1 C1.03 3.475 1.03 3.475 -2 6 C-2 3 -2 3 0 0 Z " fill="#1B1B1B" transform="translate(233,225)"/>
</svg>
